<svg width="855" height="848" viewBox="0 0 855 848" fill="none" xmlns="http://www.w3.org/2000/svg">
<rect width="855" height="848" fill="url(#paint0_linear_5_274)"/>
<path d="M661 232L853.5 166.5L855 847.5L67 848L109 755C109 755 277.782 760.755 290.5 686C298.327 639.993 236.866 621.454 245 575.5C259.941 491.092 410.235 641.857 464.5 575.5C508.876 521.235 415.618 446.244 464.5 396C514.744 344.357 598.918 447.8 649 396C693.636 349.832 661 232 661 232Z" fill="#17798E"/>
<path d="M548.5 102.5L563.5 4H0V446.5H122.5C122.5 446.5 103.122 349.521 132.5 300.5C184.266 214.121 346.01 365.065 389 274C414.267 220.477 341.732 171.258 376 123C415.277 67.6873 548.5 102.5 548.5 102.5Z" fill="#17798E"/>
<g filter="url(#filter0_i_5_274)">
<path d="M697 249.5L854.5 162.5V847L89 848L133.5 750.842C133.5 750.842 288.782 783.755 301.5 709C309.327 662.993 269.866 640.954 278 595C292.941 510.592 433.235 661.357 487.5 595C531.876 540.735 450.118 470.744 499 420.5C549.244 368.857 633.418 458.8 683.5 407C728.136 360.832 697 249.5 697 249.5Z" fill="#60B8CB"/>
<path d="M514.5 62L564.5 0H1V442.5L92 420.5C92 420.5 82.6221 298.521 112 249.5C163.766 163.121 305.51 340.565 348.5 249.5C373.767 195.977 314.232 131.758 348.5 83.5C387.777 28.1873 514.5 62 514.5 62Z" fill="#60B8CB"/>
</g>
<g filter="url(#filter1_d_5_274)">
<path d="M264.468 131.94L241.632 225H209.82L197.016 167.976L183.948 225H152.136L129.564 131.94H157.548L168.372 195.564L183.024 131.94H211.404L225.66 195.036L236.484 131.94H264.468ZM305.279 152.664V167.844H334.979V187.512H305.279V204.276H338.939V225H279.407V131.94H338.939V152.664H305.279ZM381.555 205.2H410.463V225H355.683V131.94H381.555V205.2ZM130.224 283.272C130.224 274.12 132.116 265.98 135.9 258.852C139.772 251.636 145.228 246.048 152.268 242.088C159.308 238.04 167.404 236.016 176.556 236.016C188.172 236.016 197.94 239.14 205.86 245.388C213.78 251.548 218.884 259.952 221.172 270.6H193.32C191.648 267.08 189.316 264.396 186.324 262.548C183.42 260.7 180.032 259.776 176.16 259.776C170.176 259.776 165.38 261.932 161.772 266.244C158.252 270.468 156.492 276.144 156.492 283.272C156.492 290.488 158.252 296.252 161.772 300.564C165.38 304.788 170.176 306.9 176.16 306.9C180.032 306.9 183.42 305.976 186.324 304.128C189.316 302.28 191.648 299.596 193.32 296.076H221.172C218.884 306.724 213.78 315.172 205.86 321.42C197.94 327.58 188.172 330.66 176.556 330.66C167.404 330.66 159.308 328.68 152.268 324.72C145.228 320.672 139.772 315.084 135.9 307.956C132.116 300.74 130.224 292.512 130.224 283.272ZM281.999 330.924C273.287 330.924 265.279 328.9 257.975 324.852C250.671 320.716 244.863 315.04 240.551 307.824C236.327 300.52 234.215 292.292 234.215 283.14C234.215 273.988 236.327 265.804 240.551 258.588C244.863 251.284 250.671 245.608 257.975 241.56C265.279 237.512 273.287 235.488 281.999 235.488C290.799 235.488 298.807 237.512 306.023 241.56C313.327 245.608 319.091 251.284 323.315 258.588C327.539 265.804 329.651 273.988 329.651 283.14C329.651 292.292 327.539 300.52 323.315 307.824C319.091 315.04 313.327 320.716 306.023 324.852C298.719 328.9 290.711 330.924 281.999 330.924ZM281.999 306.9C288.599 306.9 293.791 304.744 297.575 300.432C301.447 296.12 303.383 290.356 303.383 283.14C303.383 275.748 301.447 269.94 297.575 265.716C293.791 261.404 288.599 259.248 281.999 259.248C275.311 259.248 270.075 261.404 266.291 265.716C262.507 269.94 260.615 275.748 260.615 283.14C260.615 290.444 262.507 296.252 266.291 300.564C270.075 304.788 275.311 306.9 281.999 306.9ZM453.878 236.94V330H428.006V278.652L410.45 330H388.802L371.114 278.256V330H345.242V236.94H376.526L399.89 297.396L422.726 236.94H453.878ZM498.437 257.664V272.844H528.137V292.512H498.437V309.276H532.097V330H472.565V236.94H532.097V257.664H498.437ZM192.792 492.216C198.248 493.448 202.56 496.176 205.728 500.4C208.984 504.536 210.612 509.288 210.612 514.656C210.612 522.576 207.884 528.78 202.428 533.268C196.972 537.756 189.316 540 179.46 540H133.392V446.94H178.008C187.512 446.94 194.948 449.052 200.316 453.276C205.772 457.5 208.5 463.44 208.5 471.096C208.5 476.552 207.048 481.128 204.144 484.824C201.328 488.432 197.544 490.896 192.792 492.216ZM159.264 483.9H172.332C178.844 483.9 182.1 481.216 182.1 475.848C182.1 470.304 178.844 467.532 172.332 467.532H159.264V483.9ZM174.312 519.144C180.824 519.144 184.08 516.416 184.08 510.96C184.08 508.144 183.2 505.988 181.44 504.492C179.768 502.996 177.348 502.248 174.18 502.248H159.264V519.144H174.312ZM284.783 524.82H251.783L246.767 540H219.575L253.499 446.94H283.331L317.123 540H289.799L284.783 524.82ZM278.315 505.02L268.283 474.924L258.383 505.02H278.315ZM326.347 493.272C326.347 484.12 328.239 475.98 332.023 468.852C335.895 461.636 341.351 456.048 348.391 452.088C355.431 448.04 363.527 446.016 372.679 446.016C384.295 446.016 394.063 449.14 401.983 455.388C409.903 461.548 415.007 469.952 417.295 480.6H389.443C387.771 477.08 385.439 474.396 382.447 472.548C379.543 470.7 376.155 469.776 372.283 469.776C366.299 469.776 361.503 471.932 357.895 476.244C354.375 480.468 352.615 486.144 352.615 493.272C352.615 500.488 354.375 506.252 357.895 510.564C361.503 514.788 366.299 516.9 372.283 516.9C376.155 516.9 379.543 515.976 382.447 514.128C385.439 512.28 387.771 509.596 389.443 506.076H417.295C415.007 516.724 409.903 525.172 401.983 531.42C394.063 537.58 384.295 540.66 372.679 540.66C363.527 540.66 355.431 538.68 348.391 534.72C341.351 530.672 335.895 525.084 332.023 517.956C328.239 510.74 326.347 502.512 326.347 493.272ZM488.55 540L459.378 499.212V540H433.506V446.94H459.378V487.068L488.286 446.94H518.118L483.93 492.084L519.834 540H488.55ZM220.38 650.544V675.624H134.844V650.544H220.38Z" fill="white"/>
</g>
<defs>
<filter id="filter0_i_5_274" x="1" y="0" width="853.5" height="848" filterUnits="userSpaceOnUse" color-interpolation-filters="sRGB">
<feFlood flood-opacity="0" result="BackgroundImageFix"/>
<feBlend mode="normal" in="SourceGraphic" in2="BackgroundImageFix" result="shape"/>
<feColorMatrix in="SourceAlpha" type="matrix" values="0 0 0 0 0 0 0 0 0 0 0 0 0 0 0 0 0 0 127 0" result="hardAlpha"/>
<feOffset dx="23" dy="21"/>
<feComposite in2="hardAlpha" operator="arithmetic" k2="-1" k3="1"/>
<feColorMatrix type="matrix" values="0 0 0 0 0.06125 0 0 0 0 0.298727 0 0 0 0 0.35 0 0 0 1 0"/>
<feBlend mode="normal" in2="shape" result="effect1_innerShadow_5_274"/>
</filter>
<filter id="filter1_d_5_274" x="125.564" y="131.94" width="410.533" height="551.684" filterUnits="userSpaceOnUse" color-interpolation-filters="sRGB">
<feFlood flood-opacity="0" result="BackgroundImageFix"/>
<feColorMatrix in="SourceAlpha" type="matrix" values="0 0 0 0 0 0 0 0 0 0 0 0 0 0 0 0 0 0 127 0" result="hardAlpha"/>
<feOffset dy="4"/>
<feGaussianBlur stdDeviation="2"/>
<feComposite in2="hardAlpha" operator="out"/>
<feColorMatrix type="matrix" values="0 0 0 0 0 0 0 0 0 0 0 0 0 0 0 0 0 0 0.25 0"/>
<feBlend mode="normal" in2="BackgroundImageFix" result="effect1_dropShadow_5_274"/>
<feBlend mode="normal" in="SourceGraphic" in2="effect1_dropShadow_5_274" result="shape"/>
</filter>
<linearGradient id="paint0_linear_5_274" x1="0" y1="0" x2="854.006" y2="848.999" gradientUnits="userSpaceOnUse">
<stop stop-color="#1EA4C0"/>
<stop offset="0.18636" stop-color="#27B9D9"/>
<stop offset="0.480957" stop-color="#31B4D0"/>
<stop offset="1" stop-color="#86E2F5"/>
</linearGradient>
</defs>
</svg>
