<svg width="855" height="848" viewBox="0 0 855 848" fill="none" xmlns="http://www.w3.org/2000/svg">
<rect width="855" height="848" fill="url(#paint0_linear_5_274)"/>
<path d="M661 232L853.5 166.5L855 847.5L67 848L109 755C109 755 277.782 760.755 290.5 686C298.327 639.993 236.866 621.454 245 575.5C259.941 491.092 410.235 641.857 464.5 575.5C508.876 521.235 415.618 446.244 464.5 396C514.744 344.357 598.918 447.8 649 396C693.636 349.832 661 232 661 232Z" fill="#17798E"/>
<path d="M548.5 102.5L563.5 4H0V446.5H122.5C122.5 446.5 103.122 349.521 132.5 300.5C184.266 214.121 346.01 365.065 389 274C414.267 220.477 341.732 171.258 376 123C415.277 67.6873 548.5 102.5 548.5 102.5Z" fill="#17798E"/>
<g filter="url(#filter0_i_5_274)">
<path d="M697 249.5L854.5 162.5V847L89 848L133.5 750.842C133.5 750.842 288.782 783.755 301.5 709C309.327 662.993 269.866 640.954 278 595C292.941 510.592 433.235 661.357 487.5 595C531.876 540.735 450.118 470.744 499 420.5C549.244 368.857 633.418 458.8 683.5 407C728.136 360.832 697 249.5 697 249.5Z" fill="#60B8CB"/>
<path d="M514.5 62L564.5 0H1V442.5L92 420.5C92 420.5 82.6221 298.521 112 249.5C163.766 163.121 305.51 340.565 348.5 249.5C373.767 195.977 314.232 131.758 348.5 83.5C387.777 28.1873 514.5 62 514.5 62Z" fill="#60B8CB"/>
</g>
<g filter="url(#filter1_d_5_274)">
<path d="M264.468 109.94L241.632 203H209.82L197.016 145.976L183.948 203H152.136L129.564 109.94H157.548L168.372 173.564L183.024 109.94H211.404L225.66 173.036L236.484 109.94H264.468ZM305.279 130.664V145.844H334.979V165.512H305.279V182.276H338.939V203H279.407V109.94H338.939V130.664H305.279ZM381.555 183.2H410.463V203H355.683V109.94H381.555V183.2ZM130.224 261.272C130.224 252.12 132.116 243.98 135.9 236.852C139.772 229.636 145.228 224.048 152.268 220.088C159.308 216.04 167.404 214.016 176.556 214.016C188.172 214.016 197.94 217.14 205.86 223.388C213.78 229.548 218.884 237.952 221.172 248.6H193.32C191.648 245.08 189.316 242.396 186.324 240.548C183.42 238.7 180.032 237.776 176.16 237.776C170.176 237.776 165.38 239.932 161.772 244.244C158.252 248.468 156.492 254.144 156.492 261.272C156.492 268.488 158.252 274.252 161.772 278.564C165.38 282.788 170.176 284.9 176.16 284.9C180.032 284.9 183.42 283.976 186.324 282.128C189.316 280.28 191.648 277.596 193.32 274.076H221.172C218.884 284.724 213.78 293.172 205.86 299.42C197.94 305.58 188.172 308.66 176.556 308.66C167.404 308.66 159.308 306.68 152.268 302.72C145.228 298.672 139.772 293.084 135.9 285.956C132.116 278.74 130.224 270.512 130.224 261.272ZM281.999 308.924C273.287 308.924 265.279 306.9 257.975 302.852C250.671 298.716 244.863 293.04 240.551 285.824C236.327 278.52 234.215 270.292 234.215 261.14C234.215 251.988 236.327 243.804 240.551 236.588C244.863 229.284 250.671 223.608 257.975 219.56C265.279 215.512 273.287 213.488 281.999 213.488C290.799 213.488 298.807 215.512 306.023 219.56C313.327 223.608 319.091 229.284 323.315 236.588C327.539 243.804 329.651 251.988 329.651 261.14C329.651 270.292 327.539 278.52 323.315 285.824C319.091 293.04 313.327 298.716 306.023 302.852C298.719 306.9 290.711 308.924 281.999 308.924ZM281.999 284.9C288.599 284.9 293.791 282.744 297.575 278.432C301.447 274.12 303.383 268.356 303.383 261.14C303.383 253.748 301.447 247.94 297.575 243.716C293.791 239.404 288.599 237.248 281.999 237.248C275.311 237.248 270.075 239.404 266.291 243.716C262.507 247.94 260.615 253.748 260.615 261.14C260.615 268.444 262.507 274.252 266.291 278.564C270.075 282.788 275.311 284.9 281.999 284.9ZM453.878 214.94V308H428.006V256.652L410.45 308H388.802L371.114 256.256V308H345.242V214.94H376.526L399.89 275.396L422.726 214.94H453.878ZM498.437 235.664V250.844H528.137V270.512H498.437V287.276H532.097V308H472.565V214.94H532.097V235.664H498.437ZM220.38 418.544V443.624H134.844V418.544H220.38Z" fill="white"/>
</g>
<defs>
<filter id="filter0_i_5_274" x="1" y="0" width="853.5" height="848" filterUnits="userSpaceOnUse" color-interpolation-filters="sRGB">
<feFlood flood-opacity="0" result="BackgroundImageFix"/>
<feBlend mode="normal" in="SourceGraphic" in2="BackgroundImageFix" result="shape"/>
<feColorMatrix in="SourceAlpha" type="matrix" values="0 0 0 0 0 0 0 0 0 0 0 0 0 0 0 0 0 0 127 0" result="hardAlpha"/>
<feOffset dx="23" dy="21"/>
<feComposite in2="hardAlpha" operator="arithmetic" k2="-1" k3="1"/>
<feColorMatrix type="matrix" values="0 0 0 0 0.06125 0 0 0 0 0.298727 0 0 0 0 0.35 0 0 0 1 0"/>
<feBlend mode="normal" in2="shape" result="effect1_innerShadow_5_274"/>
</filter>
<filter id="filter1_d_5_274" x="125.564" y="109.94" width="410.533" height="341.684" filterUnits="userSpaceOnUse" color-interpolation-filters="sRGB">
<feFlood flood-opacity="0" result="BackgroundImageFix"/>
<feColorMatrix in="SourceAlpha" type="matrix" values="0 0 0 0 0 0 0 0 0 0 0 0 0 0 0 0 0 0 127 0" result="hardAlpha"/>
<feOffset dy="4"/>
<feGaussianBlur stdDeviation="2"/>
<feComposite in2="hardAlpha" operator="out"/>
<feColorMatrix type="matrix" values="0 0 0 0 0 0 0 0 0 0 0 0 0 0 0 0 0 0 0.25 0"/>
<feBlend mode="normal" in2="BackgroundImageFix" result="effect1_dropShadow_5_274"/>
<feBlend mode="normal" in="SourceGraphic" in2="effect1_dropShadow_5_274" result="shape"/>
</filter>
<linearGradient id="paint0_linear_5_274" x1="0" y1="0" x2="854.006" y2="848.999" gradientUnits="userSpaceOnUse">
<stop stop-color="#1EA4C0"/>
<stop offset="0.18636" stop-color="#27B9D9"/>
<stop offset="0.480957" stop-color="#31B4D0"/>
<stop offset="1" stop-color="#86E2F5"/>
</linearGradient>
</defs>
</svg>
