<svg width="855" height="848" viewBox="0 0 855 848" fill="none" xmlns="http://www.w3.org/2000/svg">
<rect width="855" height="848" fill="url(#paint0_linear_5_274)"/>
<path d="M661 232L853.5 166.5L855 847.5L67 848L109 755C109 755 277.782 760.755 290.5 686C298.327 639.993 236.866 621.454 245 575.5C259.941 491.092 410.235 641.857 464.5 575.5C508.876 521.235 415.618 446.244 464.5 396C514.744 344.357 598.918 447.8 649 396C693.636 349.832 661 232 661 232Z" fill="#17798E"/>
<path d="M548.5 102.5L563.5 4H0V446.5H122.5C122.5 446.5 103.122 349.521 132.5 300.5C184.266 214.121 346.01 365.065 389 274C414.267 220.477 341.732 171.258 376 123C415.277 67.6873 548.5 102.5 548.5 102.5Z" fill="#17798E"/>
<g filter="url(#filter0_i_5_274)">
<path d="M697 249.5L854.5 162.5V847L89 848L133.5 750.842C133.5 750.842 288.782 783.755 301.5 709C309.327 662.993 269.866 640.954 278 595C292.941 510.592 433.235 661.357 487.5 595C531.876 540.735 450.118 470.744 499 420.5C549.244 368.857 633.418 458.8 683.5 407C728.136 360.832 697 249.5 697 249.5Z" fill="#60B8CB"/>
<path d="M514.5 62L564.5 0H1V442.5L92 420.5C92 420.5 82.6221 298.521 112 249.5C163.766 163.121 305.51 340.565 348.5 249.5C373.767 195.977 314.232 131.758 348.5 83.5C387.777 28.1873 514.5 62 514.5 62Z" fill="#60B8CB"/>
</g>
<g filter="url(#filter1_d_5_274)">
<path d="M180.516 203L162.036 168.68H159.264V203H133.392V109.94H174.18C181.66 109.94 187.996 111.26 193.188 113.9C198.38 116.452 202.296 120.016 204.936 124.592C207.576 129.08 208.896 134.14 208.896 139.772C208.896 146.108 207.136 151.696 203.616 156.536C200.184 161.288 195.124 164.676 188.436 166.7L209.424 203H180.516ZM159.264 150.992H172.068C175.588 150.992 178.228 150.156 179.988 148.484C181.748 146.812 182.628 144.392 182.628 141.224C182.628 138.232 181.704 135.9 179.856 134.228C178.096 132.468 175.5 131.588 172.068 131.588H159.264V150.992ZM250.494 130.664V145.844H280.194V165.512H250.494V182.276H284.154V203H224.622V109.94H284.154V130.664H250.494ZM192.792 245.564C191.296 243.1 189.228 241.208 186.588 239.888C184.036 238.568 181 237.908 177.48 237.908C170.968 237.908 165.82 240.02 162.036 244.244C158.34 248.468 156.492 254.144 156.492 261.272C156.492 269.28 158.472 275.396 162.432 279.62C166.48 283.756 172.332 285.824 179.988 285.824C189.052 285.824 195.52 281.732 199.392 273.548H173.388V254.936H221.7V280.016C219.676 284.944 216.684 289.564 212.724 293.876C208.852 298.188 203.924 301.752 197.94 304.568C191.956 307.296 185.136 308.66 177.48 308.66C168.152 308.66 159.88 306.68 152.664 302.72C145.536 298.672 139.992 293.084 136.032 285.956C132.16 278.74 130.224 270.512 130.224 261.272C130.224 252.12 132.16 243.98 136.032 236.852C139.992 229.636 145.536 224.048 152.664 220.088C159.792 216.04 168.02 214.016 177.348 214.016C189.052 214.016 198.732 216.832 206.388 222.464C214.044 228.096 218.796 235.796 220.644 245.564H192.792ZM263.126 214.94V308H237.254V214.94H263.126ZM316.932 308.924C306.108 308.924 297.22 306.372 290.268 301.268C283.316 296.076 279.576 288.684 279.048 279.092H306.636C306.9 282.348 307.868 284.724 309.54 286.22C311.212 287.716 313.368 288.464 316.008 288.464C318.384 288.464 320.32 287.892 321.816 286.748C323.4 285.516 324.192 283.844 324.192 281.732C324.192 279.004 322.916 276.892 320.364 275.396C317.812 273.9 313.676 272.228 307.956 270.38C301.884 268.356 296.956 266.42 293.172 264.572C289.476 262.636 286.22 259.864 283.404 256.256C280.676 252.56 279.312 247.764 279.312 241.868C279.312 235.884 280.808 230.78 283.8 226.556C286.792 222.244 290.928 218.988 296.208 216.788C301.488 214.588 307.472 213.488 314.16 213.488C324.984 213.488 333.608 216.04 340.032 221.144C346.544 226.16 350.02 233.244 350.46 242.396H322.344C322.256 239.58 321.376 237.468 319.704 236.06C318.12 234.652 316.052 233.948 313.5 233.948C311.564 233.948 309.98 234.52 308.748 235.664C307.516 236.808 306.9 238.436 306.9 240.548C306.9 242.308 307.56 243.848 308.88 245.168C310.288 246.4 312.004 247.5 314.028 248.468C316.052 249.348 319.044 250.492 323.004 251.9C328.9 253.924 333.74 255.948 337.524 257.972C341.396 259.908 344.696 262.68 347.424 266.288C350.24 269.808 351.648 274.296 351.648 279.752C351.648 285.296 350.24 290.268 347.424 294.668C344.696 299.068 340.692 302.544 335.412 305.096C330.22 307.648 324.06 308.924 316.932 308.924ZM437.727 214.94V235.532H412.911V308H387.039V235.532H362.487V214.94H437.727ZM477.131 235.664V250.844H506.831V270.512H477.131V287.276H510.791V308H451.259V214.94H510.791V235.664H477.131ZM574.66 308L556.18 273.68H553.408V308H527.536V214.94H568.324C575.804 214.94 582.14 216.26 587.332 218.9C592.524 221.452 596.44 225.016 599.08 229.592C601.72 234.08 603.04 239.14 603.04 244.772C603.04 251.108 601.28 256.696 597.76 261.536C594.328 266.288 589.268 269.676 582.58 271.7L603.568 308H574.66ZM553.408 255.992H566.212C569.732 255.992 572.372 255.156 574.132 253.484C575.892 251.812 576.772 249.392 576.772 246.224C576.772 243.232 575.848 240.9 574 239.228C572.24 237.468 569.644 236.588 566.212 236.588H553.408V255.992ZM220.38 418.544V443.624H134.844V418.544H220.38Z" fill="white"/>
</g>
<defs>
<filter id="filter0_i_5_274" x="1" y="0" width="853.5" height="848" filterUnits="userSpaceOnUse" color-interpolation-filters="sRGB">
<feFlood flood-opacity="0" result="BackgroundImageFix"/>
<feBlend mode="normal" in="SourceGraphic" in2="BackgroundImageFix" result="shape"/>
<feColorMatrix in="SourceAlpha" type="matrix" values="0 0 0 0 0 0 0 0 0 0 0 0 0 0 0 0 0 0 127 0" result="hardAlpha"/>
<feOffset dx="23" dy="21"/>
<feComposite in2="hardAlpha" operator="arithmetic" k2="-1" k3="1"/>
<feColorMatrix type="matrix" values="0 0 0 0 0.06125 0 0 0 0 0.298727 0 0 0 0 0.35 0 0 0 1 0"/>
<feBlend mode="normal" in2="shape" result="effect1_innerShadow_5_274"/>
</filter>
<filter id="filter1_d_5_274" x="126.224" y="109.94" width="481.344" height="341.684" filterUnits="userSpaceOnUse" color-interpolation-filters="sRGB">
<feFlood flood-opacity="0" result="BackgroundImageFix"/>
<feColorMatrix in="SourceAlpha" type="matrix" values="0 0 0 0 0 0 0 0 0 0 0 0 0 0 0 0 0 0 127 0" result="hardAlpha"/>
<feOffset dy="4"/>
<feGaussianBlur stdDeviation="2"/>
<feComposite in2="hardAlpha" operator="out"/>
<feColorMatrix type="matrix" values="0 0 0 0 0 0 0 0 0 0 0 0 0 0 0 0 0 0 0.25 0"/>
<feBlend mode="normal" in2="BackgroundImageFix" result="effect1_dropShadow_5_274"/>
<feBlend mode="normal" in="SourceGraphic" in2="effect1_dropShadow_5_274" result="shape"/>
</filter>
<linearGradient id="paint0_linear_5_274" x1="0" y1="0" x2="854.006" y2="848.999" gradientUnits="userSpaceOnUse">
<stop stop-color="#1EA4C0"/>
<stop offset="0.18636" stop-color="#27B9D9"/>
<stop offset="0.480957" stop-color="#31B4D0"/>
<stop offset="1" stop-color="#86E2F5"/>
</linearGradient>
</defs>
</svg>
