<svg width="855" height="848" viewBox="0 0 855 848" fill="none" xmlns="http://www.w3.org/2000/svg">
<rect width="855" height="848" fill="url(#paint0_linear_5_274)"/>
<path d="M661 232L853.5 166.5L855 847.5L67 848L109 755C109 755 277.782 760.755 290.5 686C298.327 639.993 236.866 621.454 245 575.5C259.941 491.092 410.235 641.857 464.5 575.5C508.876 521.235 415.618 446.244 464.5 396C514.744 344.357 598.918 447.8 649 396C693.636 349.832 661 232 661 232Z" fill="#17798E"/>
<path d="M548.5 102.5L563.5 4H0V446.5H122.5C122.5 446.5 103.122 349.521 132.5 300.5C184.266 214.121 346.01 365.065 389 274C414.267 220.477 341.732 171.258 376 123C415.277 67.6873 548.5 102.5 548.5 102.5Z" fill="#17798E"/>
<g filter="url(#filter0_i_5_274)">
<path d="M697 249.5L854.5 162.5V847L89 848L133.5 750.842C133.5 750.842 288.782 783.755 301.5 709C309.327 662.993 269.866 640.954 278 595C292.941 510.592 433.235 661.357 487.5 595C531.876 540.735 450.118 470.744 499 420.5C549.244 368.857 633.418 458.8 683.5 407C728.136 360.832 697 249.5 697 249.5Z" fill="#60B8CB"/>
<path d="M514.5 62L564.5 0H1V442.5L92 420.5C92 420.5 82.6221 298.521 112 249.5C163.766 163.121 305.51 340.565 348.5 249.5C373.767 195.977 314.232 131.758 348.5 83.5C387.777 28.1873 514.5 62 514.5 62Z" fill="#60B8CB"/>
</g>
<g filter="url(#filter1_d_5_274)">
<path d="M180.516 203L162.036 168.68H159.264V203H133.392V109.94H174.18C181.66 109.94 187.996 111.26 193.188 113.9C198.38 116.452 202.296 120.016 204.936 124.592C207.576 129.08 208.896 134.14 208.896 139.772C208.896 146.108 207.136 151.696 203.616 156.536C200.184 161.288 195.124 164.676 188.436 166.7L209.424 203H180.516ZM159.264 150.992H172.068C175.588 150.992 178.228 150.156 179.988 148.484C181.748 146.812 182.628 144.392 182.628 141.224C182.628 138.232 181.704 135.9 179.856 134.228C178.096 132.468 175.5 131.588 172.068 131.588H159.264V150.992ZM250.494 130.664V145.844H280.194V165.512H250.494V182.276H284.154V203H224.622V109.94H284.154V130.664H250.494ZM168.504 308.924C157.68 308.924 148.792 306.372 141.84 301.268C134.888 296.076 131.148 288.684 130.62 279.092H158.208C158.472 282.348 159.44 284.724 161.112 286.22C162.784 287.716 164.94 288.464 167.58 288.464C169.956 288.464 171.892 287.892 173.388 286.748C174.972 285.516 175.764 283.844 175.764 281.732C175.764 279.004 174.488 276.892 171.936 275.396C169.384 273.9 165.248 272.228 159.528 270.38C153.456 268.356 148.528 266.42 144.744 264.572C141.048 262.636 137.792 259.864 134.976 256.256C132.248 252.56 130.884 247.764 130.884 241.868C130.884 235.884 132.38 230.78 135.372 226.556C138.364 222.244 142.5 218.988 147.78 216.788C153.06 214.588 159.044 213.488 165.732 213.488C176.556 213.488 185.18 216.04 191.604 221.144C198.116 226.16 201.592 233.244 202.032 242.396H173.916C173.828 239.58 172.948 237.468 171.276 236.06C169.692 234.652 167.624 233.948 165.072 233.948C163.136 233.948 161.552 234.52 160.32 235.664C159.088 236.808 158.472 238.436 158.472 240.548C158.472 242.308 159.132 243.848 160.452 245.168C161.86 246.4 163.576 247.5 165.6 248.468C167.624 249.348 170.616 250.492 174.576 251.9C180.472 253.924 185.312 255.948 189.096 257.972C192.968 259.908 196.268 262.68 198.996 266.288C201.812 269.808 203.22 274.296 203.22 279.752C203.22 285.296 201.812 290.268 198.996 294.668C196.268 299.068 192.264 302.544 186.984 305.096C181.792 307.648 175.632 308.924 168.504 308.924ZM245.079 235.664V250.844H274.779V270.512H245.079V287.276H278.739V308H219.207V214.94H278.739V235.664H245.079ZM365.576 214.94V235.532H340.76V308H314.888V235.532H290.336V214.94H365.576ZM449.2 214.94V235.532H424.384V308H398.512V235.532H373.96V214.94H449.2ZM488.604 214.94V308H462.732V214.94H488.604ZM593.493 308H567.621L533.169 255.992V308H507.297V214.94H533.169L567.621 267.608V214.94H593.493V308ZM671.591 245.564C670.095 243.1 668.027 241.208 665.387 239.888C662.835 238.568 659.799 237.908 656.279 237.908C649.767 237.908 644.619 240.02 640.835 244.244C637.139 248.468 635.291 254.144 635.291 261.272C635.291 269.28 637.271 275.396 641.231 279.62C645.279 283.756 651.131 285.824 658.787 285.824C667.851 285.824 674.319 281.732 678.191 273.548H652.187V254.936H700.499V280.016C698.475 284.944 695.483 289.564 691.523 293.876C687.651 298.188 682.723 301.752 676.739 304.568C670.755 307.296 663.935 308.66 656.279 308.66C646.951 308.66 638.679 306.68 631.463 302.72C624.335 298.672 618.791 293.084 614.831 285.956C610.959 278.74 609.023 270.512 609.023 261.272C609.023 252.12 610.959 243.98 614.831 236.852C618.791 229.636 624.335 224.048 631.463 220.088C638.591 216.04 646.819 214.016 656.147 214.016C667.851 214.016 677.531 216.832 685.187 222.464C692.843 228.096 697.595 235.796 699.443 245.564H671.591ZM220.38 418.544V443.624H134.844V418.544H220.38Z" fill="white"/>
</g>
<defs>
<filter id="filter0_i_5_274" x="1" y="0" width="853.5" height="848" filterUnits="userSpaceOnUse" color-interpolation-filters="sRGB">
<feFlood flood-opacity="0" result="BackgroundImageFix"/>
<feBlend mode="normal" in="SourceGraphic" in2="BackgroundImageFix" result="shape"/>
<feColorMatrix in="SourceAlpha" type="matrix" values="0 0 0 0 0 0 0 0 0 0 0 0 0 0 0 0 0 0 127 0" result="hardAlpha"/>
<feOffset dx="23" dy="21"/>
<feComposite in2="hardAlpha" operator="arithmetic" k2="-1" k3="1"/>
<feColorMatrix type="matrix" values="0 0 0 0 0.06125 0 0 0 0 0.298727 0 0 0 0 0.35 0 0 0 1 0"/>
<feBlend mode="normal" in2="shape" result="effect1_innerShadow_5_274"/>
</filter>
<filter id="filter1_d_5_274" x="126.62" y="109.94" width="577.879" height="341.684" filterUnits="userSpaceOnUse" color-interpolation-filters="sRGB">
<feFlood flood-opacity="0" result="BackgroundImageFix"/>
<feColorMatrix in="SourceAlpha" type="matrix" values="0 0 0 0 0 0 0 0 0 0 0 0 0 0 0 0 0 0 127 0" result="hardAlpha"/>
<feOffset dy="4"/>
<feGaussianBlur stdDeviation="2"/>
<feComposite in2="hardAlpha" operator="out"/>
<feColorMatrix type="matrix" values="0 0 0 0 0 0 0 0 0 0 0 0 0 0 0 0 0 0 0.25 0"/>
<feBlend mode="normal" in2="BackgroundImageFix" result="effect1_dropShadow_5_274"/>
<feBlend mode="normal" in="SourceGraphic" in2="effect1_dropShadow_5_274" result="shape"/>
</filter>
<linearGradient id="paint0_linear_5_274" x1="0" y1="0" x2="854.006" y2="848.999" gradientUnits="userSpaceOnUse">
<stop stop-color="#1EA4C0"/>
<stop offset="0.18636" stop-color="#27B9D9"/>
<stop offset="0.480957" stop-color="#31B4D0"/>
<stop offset="1" stop-color="#86E2F5"/>
</linearGradient>
</defs>
</svg>
